<?xml version="1.0" encoding="UTF-8"?>
<svg width="102px" height="80px" viewBox="0 0 102 80" version="1.1" xmlns="http://www.w3.org/2000/svg">
    <title>1_BOX_Orange-Black_RGB (1)</title>
    <g id="responsive" stroke="none" stroke-width="1" fill="none" fill-rule="evenodd">
        <g id="App-Installation---Landing-Page-(web)" transform="translate(-46.000000, -42.000000)">
            <g id="Logo" transform="translate(48.000000, 32.000000)">
                <g id="1_BOX_Orange-Black_RGB-(1)" transform="translate(-1.250000, 10.000000)">
                    <polygon id="Fill-1" fill="#FF8600" points="16.1653326 78.1456954 16.1653326 64.3047747 0.831620614 64.3047747 0.831620614 48.6176327 16.1897244 48.6176327 16.1897244 0.662251656 98.8448656 0.662251656 98.8448656 47.7971409 98.4458523 47.7971409 97.1148872 47.7852031 83.749089 47.7852031 83.749089 66.5867245 54.1084228 66.5867245 54.1084228 78.1456954"></polygon>
                    <g id="Group-12" transform="translate(0.169369, 0.000000)" fill="#2A292E">
                        <path d="M35.4761435,26.0256173 C35.4595102,26.1496459 35.5472971,26.2635685 35.6720468,26.2801057 C35.6928384,26.2828618 35.7140921,26.2828618 35.7348837,26.2796463 L38.4544278,26.2796463 C38.9714462,26.2998584 39.4681349,26.079363 39.7975666,25.6824714 C40.456892,24.8900662 40.456892,23.7434904 39.7975666,22.9510853 C39.4732173,22.5463844 38.9746804,22.3189986 38.4544278,22.3382919 L35.7348837,22.3382919 C35.5625443,22.3382919 35.4761435,22.4274088 35.4761435,22.6079394 L35.4761435,26.0256173 Z M35.4761435,18.4369023 C35.4590482,18.5590935 35.5449869,18.6720974 35.6683505,18.6886345 C35.6900662,18.6918501 35.712706,18.6913907 35.7348837,18.6881752 L38.4544278,18.6881752 C38.9076852,18.6877158 39.341537,18.5039697 39.6557215,18.1796578 C39.9897736,17.8750986 40.1796837,17.4451326 40.1796837,16.9944953 C40.1815186,16.5479922 39.9906977,16.1221605 39.6557215,15.8244918 C39.3387648,15.5047736 38.9062991,15.3251617 38.4544278,15.3256202 L35.7348837,15.3256202 C35.5625443,15.3256202 35.4761435,15.4174942 35.4761435,15.5948092 L35.4761435,18.4369023 Z M31.850504,29.4157333 L31.850504,12.2051525 C31.8523949,12.0664242 31.9115355,11.9345864 32.0141075,11.8404165 C32.1115971,11.7421123 32.2442014,11.6860697 32.3837363,11.6842323 L38.6581857,11.6842323 C39.3724935,11.6778012 40.0807947,11.8192857 40.7373479,12.1008766 C41.3606345,12.3723615 41.9261666,12.7605252 42.4034499,13.2428588 C42.8774988,13.7316235 43.2522101,14.3067488 43.5063299,14.9365387 C43.777545,15.5929717 43.9152318,16.2967194 43.9096874,17.0068981 C43.9013707,17.6238257 43.7650701,18.2329441 43.5091021,18.7952073 C43.2776221,19.3560923 42.9352533,19.8655285 42.5023256,20.2927382 C42.3235176,20.4613253 42.3235176,20.6202657 42.5023256,20.7645064 C42.7282612,20.9638709 42.9250886,21.1935536 43.0872632,21.4471232 C43.2623749,21.7176894 43.4088403,22.0047927 43.5248113,22.3047583 C43.6495611,22.6276921 43.7456646,22.9607319 43.8112737,23.2997435 C43.8750347,23.6364583 43.9083012,23.9777667 43.9096874,24.3199939 C43.9212383,25.107346 43.7937163,25.8910232 43.5340521,26.635195 C43.3039581,27.2985185 42.9329432,27.9053401 42.4464192,28.4143169 C41.9672878,28.9076752 41.3874326,29.2940015 40.7465886,29.5475711 C40.0442939,29.8222716 39.2953334,29.9587031 38.5408286,29.948597 L32.3744956,29.948597 C32.2363468,29.9476783 32.1046666,29.8902576 32.0108732,29.7891973 C31.9069151,29.6927305 31.8486986,29.5572178 31.850504,29.4157333 L31.850504,29.4157333 Z" id="Fill-2"></path>
                        <path d="M60.5862775,18.9023313 C60.5460804,19.5146652 60.527599,20.1550205 60.527599,20.8008881 C60.527599,21.4472151 60.527599,22.0903265 60.5765748,22.7182789 C60.6260126,23.3457719 60.6662098,23.9434062 60.746604,24.4758106 C60.8043585,25.0389925 61.0580163,25.564047 61.463684,25.961398 C61.8767442,26.3716112 62.4833975,26.573732 63.2878022,26.573732 C64.0912829,26.573732 64.7011705,26.3716112 65.117465,25.961398 C65.5263669,25.5658845 65.7837209,25.0403706 65.8442477,24.4758106 C65.9117049,23.9401906 65.9579085,23.352203 65.9860927,22.7210351 C66.0133528,22.0903265 66.0230556,21.4536462 66.0198213,20.8008881 C66.0165871,20.1485894 66.0198213,19.5243119 65.9828585,18.9023313 C65.9458956,18.28081 65.9117049,17.696038 65.8442477,17.1323967 C65.785107,16.5701336 65.5272909,16.0473759 65.117465,15.656456 C64.7062529,15.2476209 64.0968274,15.0436627 63.2878022,15.0436627 C62.6215463,14.9958887 61.964069,15.2168434 61.463684,15.656456 C61.0603265,16.0496727 60.8066687,16.570593 60.746604,17.1291812 C60.6763746,17.6946599 60.6227784,18.285863 60.5862775,18.9023313 M56.9574465,22.7182789 C56.9204836,22.0903265 56.9020022,21.4536462 56.9020022,20.8008881 C56.9020022,20.1485894 56.9204836,19.5243119 56.9574465,18.9055468 C56.9948714,18.2867818 57.0470815,17.7052253 57.1145387,17.1443402 C57.1986293,16.3781189 57.4065455,15.6307315 57.7304328,14.9306588 C58.041383,14.2475826 58.4724627,13.625602 59.00288,13.0931976 C59.54069,12.56309 60.1750655,12.1400145 60.8722778,11.8464801 C62.4307254,11.2382804 64.1624365,11.2382804 65.720884,11.8464801 C66.4199446,12.1386365 67.0557061,12.5617119 67.5935161,13.0931976 C68.1239335,13.6246832 68.554089,14.2471232 68.8627291,14.9306588 C69.1810719,15.632569 69.3889881,16.379497 69.4786231,17.1443402 C69.5465424,17.706144 69.592746,18.2927535 69.6172339,18.9055468 C69.6421839,19.5178808 69.6541968,20.1499675 69.6541968,20.8008881 C69.6541968,21.4522681 69.6421839,22.0903265 69.6172339,22.7150634 C69.592746,23.3273973 69.5465424,23.9186005 69.4786231,24.4638671 C69.3968428,25.2305478 69.1889265,25.9783945 68.8627291,26.6780079 C68.5522409,27.3610841 68.1216233,27.9835241 67.5902818,28.5154691 C67.0570923,29.0515484 66.4231788,29.4782988 65.7236562,29.7709145 C64.1633605,30.3795736 62.4298013,30.3795736 60.8695056,29.7709145 C60.1699831,29.4773801 59.5346835,29.0510891 58.9996458,28.5154691 C58.4687664,27.9835241 58.0376867,27.3610841 57.7276606,26.6780079 C57.4037733,25.9774758 57.1958571,25.2296291 57.1113045,24.4638671 C57.0461574,23.9287065 56.9948714,23.34715 56.9574465,22.7182789" id="Fill-4"></path>
                        <path d="M31.2287386,56.662022 L35.0853535,47.9772614 C35.1278608,47.8918195 35.1541968,47.799487 35.1620514,47.7043984 C35.1546589,47.5987444 35.1283228,47.4953872 35.0853535,47.3984611 L31.6782997,39.8584389 C31.5863545,39.6981204 31.5863545,39.5015121 31.6782997,39.3407342 C31.7614662,39.1960341 31.9199446,39.1092141 32.0881257,39.1174827 L35.0483906,39.1174827 C35.2535346,39.1174827 35.4198675,39.2493205 35.5469275,39.5125368 L37.7249653,44.9146729 C37.758694,44.9817402 37.8016633,45.0152739 37.8511012,45.0152739 L37.9033113,45.0152739 C37.9550593,45.0152739 37.9980286,44.9817402 38.0331434,44.9146729 L40.2102572,39.5125368 C40.2763284,39.2892853 40.4759279,39.1312636 40.7097182,39.1174827 L43.681996,39.1174827 C43.8474049,39.1142671 44.0012629,39.1997091 44.0853535,39.3407342 C44.1851532,39.4978372 44.1920838,39.6953642 44.1038349,39.8584389 L40.6847682,47.4228075 C40.6422609,47.5201929 40.6163869,47.6230908 40.6080702,47.7292041 C40.6168489,47.8256709 40.643185,47.9203001 40.6847682,48.0075795 L44.541383,56.6684531 C44.579732,56.7520576 44.6005236,56.8430119 44.6028338,56.934885 C44.6069921,57.021705 44.579732,57.1076063 44.5261358,57.1765111 C44.4452795,57.3166175 44.2937317,57.4011408 44.1315571,57.3970065 L41.0299091,57.3970065 C40.7739412,57.4167592 40.541075,57.2495502 40.4787001,57.0019523 L38.0331434,50.8221108 C37.9998768,50.7550434 37.9569074,50.7205911 37.9033113,50.7205911 L37.8511012,50.7205911 C37.8021254,50.7205911 37.758694,50.7550434 37.7249653,50.8221108 L35.2761743,57.0019523 C35.2137995,57.2495502 34.9809333,57.4167592 34.7245033,57.3970065 L31.6445711,57.3970065 C31.4759279,57.3974658 31.3202218,57.3088083 31.2347451,57.1645676 C31.1839211,57.0906098 31.156661,57.002871 31.1579968,56.9132948 C31.1612814,56.8250967 31.1857693,56.7391953 31.2287386,56.662022" id="Fill-6"></path>
                        <path d="M59.1722054,49.5683191 L59.1722054,46.9559086 C59.1731403,46.8185584 59.2281226,46.6867205 59.3265363,46.5888757 C59.4207916,46.4850591 59.5552441,46.4271791 59.6961651,46.4294759 L66.8577237,46.4294759 C67.1460342,46.4377445 67.3779763,46.6688053 67.3839828,46.9559086 L67.3839828,49.5683191 C67.3835207,49.7061287 67.3253042,49.8370478 67.2241183,49.9298396 C67.1284768,50.0295219 66.9963345,50.0860238 66.8577237,50.0860238 L59.6961651,50.0860238 C59.5584784,50.0855644 59.4272601,50.0290625 59.3325427,49.9298396 C59.2295087,49.8379665 59.1712922,49.7061287 59.1722054,49.5683191" id="Fill-8"></path>
                        <path d="M84.2746342,44.78357 L84.2746342,40.3842285 L84.3952256,40.5082571 L89.9798552,46.2627263 L90.823071,47.1309268 L86.55432,47.1309268 L85.7101802,46.2627263 L84.3952256,44.9075987 L84.2746342,44.78357 Z M81.3919914,64.7117559 L18.2811027,64.7117559 L18.2811027,3.41404892 L80.4845526,3.41404892 L80.4845526,3.4223175 L81.3919914,3.4223175 L81.3919914,64.7117559 Z M18.2570769,76.0498105 L52.2162637,76.0498105 L52.2162637,67.8579489 L18.2570769,67.8579489 L18.2570769,76.0498105 Z M84.2746342,32.4220495 L84.3952256,32.5460782 L96.2409056,44.7514145 L96.5647929,45.0844543 L96.5647929,47.1309268 L94.2860311,47.1309268 L93.4428153,46.2627263 L84.3952256,36.9426636 L84.2746342,36.8186349 L84.2746342,32.4220495 Z M84.2746342,24.4580332 L84.3952256,24.5820618 L96.2409056,36.7887762 L96.5647929,37.1222754 L96.5647929,41.5147265 L96.2409056,41.1812273 L84.3952256,28.9818627 L84.2746342,28.8578341 L84.2746342,24.4580332 Z M84.2746342,16.4953949 L84.3952256,16.6198829 L96.2409056,28.8247598 L96.5647929,29.158259 L96.5647929,33.5520882 L96.2409056,33.218589 L84.3952256,21.0169276 L84.2746342,20.8924396 L84.2746342,16.4953949 Z M84.2746342,8.53137848 L84.3952256,8.65586648 L96.2409056,20.8607434 L96.5647929,21.1937833 L96.5647929,25.5880718 L96.2409056,25.2545726 L84.3952256,13.05383 L84.2746342,12.9298013 L84.2746342,8.53137848 Z M84.2746342,3.13429545 L86.7640844,3.13429545 L87.0440782,3.4223175 L96.2409056,12.8981051 L96.5647929,13.2316043 L96.5647929,17.6254335 L96.2409056,17.2919343 L84.3952256,5.08981357 L84.2746342,4.96532558 L84.2746342,3.13429545 Z M90.2302788,3.13429545 L94.4916371,3.13429545 L94.772093,3.4223175 L96.2409056,4.9359262 L96.5647929,5.26942541 L96.5647929,9.66049841 L96.2409056,9.3269992 L90.5102726,3.4223175 L90.2302788,3.13429545 Z M3.16420761,62.4737281 L15.2538426,62.4737281 L15.2538426,50.4535161 L3.16420761,50.4535161 L3.16420761,62.4737281 Z M84.3952256,0.428174406 L84.2182658,0.428174406 L15.2778685,0.428174406 L15.2778685,47.4676415 L0.160973356,47.4676415 L0.160973356,65.4596026 L15.2538426,65.4596026 L15.2538426,79.035685 L55.21996,79.035685 L55.21996,67.6976304 L84.3952256,67.6976304 L84.3952256,49.255032 L96.2409056,49.255032 L96.2409056,49.2674348 L99.245526,49.2674348 L99.245526,49.255032 L99.2538426,49.255032 L99.2538426,0.428174406 L84.3952256,0.428174406 Z" id="Fill-10"></path>
                    </g>
                </g>
            </g>
        </g>
    </g>
</svg>
